<?xml version="1.0" encoding="utf-8"?>
<!-- Generator: Adobe Illustrator 24.3.0, SVG Export Plug-In . SVG Version: 6.00 Build 0)  -->
<svg version="1.1" id="Layer_1" xmlns="http://www.w3.org/2000/svg" xmlns:xlink="http://www.w3.org/1999/xlink" x="0px" y="0px"
	 viewBox="0 0 525.1 50.4" style="enable-background:new 0 0 525.1 50.4;" xml:space="preserve">
<style type="text/css">
	.st0{fill:#FFFFFF;}
</style>
<g id="Logo" transform="translate(-67.831 -1414.045)">
	<g id="Lines" transform="translate(69.46 1414.995)">
		
			<rect id="Rectangle_476" x="166.3" y="-0.3" transform="matrix(0.8371 -0.5471 0.5471 0.8371 14.1867 95.3672)" class="st0" width="1.8" height="48.3"/>
		
			<rect id="Rectangle_477" x="18.5" y="-1.1" transform="matrix(0.4051 -0.9143 0.9143 0.4051 -4.7546 28.3348)" class="st0" width="1.8" height="37.9"/>
		
			<rect id="Rectangle_478" x="25.6" y="0.3" transform="matrix(0.7564 -0.6541 0.6541 0.7564 -2.6682 20.7215)" class="st0" width="1.8" height="27.2"/>
		
			<rect id="Rectangle_479" x="92.7" y="-3.1" transform="matrix(0.7677 -0.6408 0.6408 0.7677 9.3112 64.4944)" class="st0" width="1.8" height="45"/>
		
			<rect id="Rectangle_480" x="151.9" y="10.1" transform="matrix(0.8499 -0.5269 0.5269 0.8499 19.085 89.0915)" class="st0" width="28" height="1.8"/>
		
			<rect id="Rectangle_481" x="228.1" y="3.6" transform="matrix(0.9909 -0.1343 0.1343 0.9909 1.372369e-02 30.8869)" class="st0" width="1.8" height="23.6"/>
		
			<rect id="Rectangle_482" x="235.5" y="0.4" transform="matrix(0.7302 -0.6832 0.6832 0.7302 55.2405 164.8481)" class="st0" width="1.8" height="24.1"/>
		
			<rect id="Rectangle_483" x="307.4" y="1.5" transform="matrix(0.7586 -0.6516 0.6516 0.7586 59.1835 206.5563)" class="st0" width="1.8" height="43.7"/>
		
			<rect id="Rectangle_484" x="290.4" y="25.1" transform="matrix(0.4432 -0.8964 0.8964 0.4432 150.2775 294.0464)" class="st0" width="42.9" height="1.8"/>
		
			<rect id="Rectangle_485" x="412.1" y="21.7" transform="matrix(0.9146 -0.4043 0.4043 0.9146 27.5749 175.8056)" class="st0" width="35.9" height="1.8"/>
		
			<rect id="Rectangle_486" x="495.3" y="0.9" transform="matrix(0.7161 -0.698 0.698 0.7161 133.0751 349.5325)" class="st0" width="1.8" height="20.6"/>
	</g>
	<g id="Typography" transform="translate(67.831 1414.045)">
		<path id="Path_8" class="st0" d="M16.4,2.5c14.2,0,24.2,8.9,24.2,23c0,14.2-10,22.6-23.7,22.6H1.7V2.5L16.4,2.5z M16.8,44.5
			c11.1,0,20.1-6.4,20.1-19.1C36.8,12.9,28,6,16.2,6H5.4v38.6H16.8z"/>
		<path id="Path_9" class="st0" d="M113.2,29.3c0,12.7-6,19.5-17.7,19.5c-11.8,0-17.7-6.8-17.7-19.5V2.4h3.8v27
			c0,10.5,4.4,15.8,13.9,15.8c9.6,0,14-5.3,14-15.8v-27h3.8L113.2,29.3z"/>
		<path id="Path_10" class="st0" d="M152.9,2.5h29.9V6h-26.2v16.3h20.7v3.6h-20.7v18.7h26.2V48h-29.9V2.5z"/>
		<path id="Path_11" class="st0" d="M234,2.5c10.4,0,16.6,4.6,16.6,13.7c0,8.9-6.2,13.8-16.6,13.8h-9.2v18h-3.7V2.5H234z M234,26.6
			c8.4,0,12.9-3.5,12.9-10.3C246.9,9,242,6,234,6h-9.2v20.6L234,26.6z"/>
		<path id="Path_12" class="st0" d="M308.8,1.5c13.1,0,23.5,9.4,23.5,23.6s-10.4,23.6-23.5,23.6c-13.1,0-23.5-9.4-23.5-23.6
			S295.7,1.5,308.8,1.5z M308.8,45.3c10.9,0,19.7-7.6,19.7-20.1c0-12.5-8.8-20.1-19.7-20.1c-11,0-19.7,7.6-19.7,20.1
			C289.1,37.7,297.8,45.3,308.8,45.3z"/>
		<path id="Path_13" class="st0" d="M369.9,2.5h3.7V48h-3.7V2.5z"/>
		<path id="Path_14" class="st0" d="M417.5,8.2h-0.1c0,0.1,0.2,5.2,0.2,10.8v29h-3.7V2.5h3.8l28.6,39.5h0.1c0-0.1-0.1-5.2-0.1-10.6
			V2.5h3.7V48h-3.8L417.5,8.2z"/>
		<path id="Path_15" class="st0" d="M507.3,6V48h-3.8V6h-16.1V2.5h36V6H507.3z"/>
	</g>
</g>
</svg>
